<svg xmlns="http://www.w3.org/2000/svg" xmlns:xlink="http://www.w3.org/1999/xlink" xml:space="preserve" viewBox="0 0 283.37 428.2">
  <defs>
    <linearGradient xlink:href="#a" id="f" x1=".47" x2=".56" y1="-.67" y2=".81" gradientTransform="matrix(231.626 0 0 231.625 111.11 160)" gradientUnits="userSpaceOnUse"/>
    <linearGradient id="a">
      <stop offset="0" stop-color="#1972e7"/>
      <stop offset="1" stop-color="#1969d5"/>
    </linearGradient>
    <linearGradient xlink:href="#b" id="e" x1="101.74" x2="101.6" y1="33.73" y2="135.47" gradientTransform="scale(3.78)" gradientUnits="userSpaceOnUse"/>
    <linearGradient id="b" x2="1" gradientTransform="translate(29.4 42.33) scale(61.286)" gradientUnits="userSpaceOnUse">
      <stop offset="0" stop-color="#afccfb"/>
      <stop offset="1" stop-color="#8bb5f8"/>
    </linearGradient>
    <linearGradient xlink:href="#c" id="g" x1=".02" x2="1.77" y1="-.51" y2=".5" gradientTransform="matrix(94.932 164.427 -164.428 94.931 97.56 173.61)" gradientUnits="userSpaceOnUse"/>
    <linearGradient id="c" x2="1" gradientTransform="rotate(60 -26.63 45.21) scale(50.236)" gradientUnits="userSpaceOnUse">
      <stop offset="0" stop-color="#659cf6"/>
      <stop offset="1" stop-color="#4285f4"/>
    </linearGradient>
    <linearGradient xlink:href="#d" id="h" x1="67.45" x2="67.73" y1="40.32" y2="95.25" gradientTransform="scale(3.78)" gradientUnits="userSpaceOnUse"/>
    <linearGradient id="d">
      <stop offset="0" stop-color="#3680f0"/>
      <stop offset="1" stop-color="#2678ec"/>
    </linearGradient>
  </defs>
  <g transform="translate(-1)">
    <rect width="283.37" height="396.63" x="1" y="31.57" fill="#dae7ef" rx="28.42" ry="28.24"/>
    <path fill="url(#e)" d="m256 256 110.84 64L256 511.97c141.38 0 256-114.6 256-255.99 0-46.64-12.54-90.33-34.34-128H256z" transform="matrix(.185 .086 -.086 .184 186.86 68.07)"/>
    <path fill="url(#f)" d="M256 0C161.23 0 78.57 51.51 34.3 128.03l110.83 191.96 110.85-64V128h221.66C433.38 51.5 350.73 0 256 0Z" transform="matrix(.185 .086 -.086 .184 186.86 68.07)"/>
    <path fill="url(#g)" d="M0 256c0 141.37 114.6 255.98 256 255.98L366.83 320 256 256l-110.85 64L34.31 128.03A254.7 254.7 0 0 0 0 255.99" transform="matrix(.185 .086 -.086 .184 186.86 68.07)"/>
    <path fill="#fff" d="M235.75 148.07a26.14 26.14 0 0 1-34.68 12.56 25.92 25.92 0 0 1-12.62-34.51 26.14 26.14 0 0 1 34.68-12.57 25.92 25.92 0 0 1 12.62 34.52"/>
    <path fill="url(#h)" d="M360 256c0 57.43-46.57 104-104 104-57.44 0-104-46.57-104-104 0-57.44 46.56-104 104-104 57.43 0 104 46.56 104 104" transform="matrix(.185 .086 -.086 .184 186.86 68.07)"/>
    <g transform="matrix(.705 0 0 .701 19.18 293.96)">
      <path fill="#01579b" d="M29.64 108.94 6.36 85.66a15.83 15.83 0 0 1-4.48-10.75c0-1.81 1.02-4.64 1.79-6.27l21.49-44.77Z"/>
      <path fill="#40c4ff" d="M109.34 28.35 86.06 5.07C84.03 3.03 79.79.59 76.21.59c-3.08 0-6.1.62-8.06 1.79L25.17 23.87ZM57.4 136.7h56.42v-24.18L71.73 99.09l-38.5 13.43z"/>
      <path fill="#29b6f6" d="M25.17 96.41c0 7.18.9 8.95 4.48 12.54l3.58 3.58h80.59l-39.4-44.77-49.25-43.88Z"/>
      <path fill="#01579b" d="M96.8 23.87H25.16l88.65 88.65h24.18V57l-28.65-28.65c-4.02-4.04-7.6-4.48-12.54-4.48z"/>
      <path fill="#fff" d="M30.54 109.84c-3.58-3.6-4.48-7.14-4.48-13.43V24.77l-.9-.9V96.4c.01 6.3.01 8.04 5.38 13.44l2.69 2.69z" opacity=".2"/>
      <path fill="#263238" d="m138 57.01-.9-.9v55.52h-24.18l.9.89H138z" opacity=".2"/>
      <path fill="#fff" d="M109.34 28.35c-4.44-4.44-8.08-4.48-13.43-4.48H25.17l.9.9h69.85c2.66 0 9.41-.45 13.42 3.58z" opacity=".2"/>
      <radialGradient id="i" cx="69.96" cy="60.89" r="68.07" gradientTransform="matrix(1 0 0 -1 0 129.53)" gradientUnits="userSpaceOnUse">
        <stop offset="0" stop-color="#fff" stop-opacity=".1"/>
        <stop offset="1" stop-color="#fff" stop-opacity="0"/>
      </radialGradient>
      <path fill="url(#i)" d="m137.1 56.11-27.76-27.76L86.06 5.07C84.03 3.03 79.79.59 76.21.59c-3.08 0-6.1.62-8.06 1.79L25.17 23.87 3.68 68.64c-.77 1.63-1.79 4.46-1.79 6.27 0 3.91 1.72 7.91 4.48 10.75l21.46 21.3a24.2 24.2 0 0 0 1.83 1.98l.9.9 2.69 2.69 23.28 23.28.9.9h56.42v-24.18h24.18V57.01z" opacity=".2"/>
    </g>
    <g transform="matrix(-5.784 0 0 5.6 251.18 129.92)">
      <path fill="#5c913b" d="M20.96 8.54a38.9 38.9 0 0 1-8.54 9.13C7.94 21.12.49 25.17 1 30.15c.38 3.64 2.71 5.67 8.14 5.28 5.19-.36 11.06-4.83 15.77-10.48 5.2-6.23 8.2-10.56 9.35-14.55.98-3.35 1.47-7.51-1.22-9.03-2.33-1.3-7.21-.4-12.08 7.17Z"/>
      <circle cx="18.22" cy="31" r=".64" fill="#5c913b"/>
      <circle cx="21.42" cy="27.98" r=".64" fill="#5c913b"/>
      <circle cx="20.99" cy="28.67" r=".64" fill="#5c913b"/>
      <circle cx="23.96" cy="25.4" r=".64" fill="#5c913b"/>
      <circle cx="30.02" cy="17.93" r=".64" fill="#5c913b"/>
      <circle cx="33.71" cy="10.81" r=".64" fill="#5c913b"/>
      <circle cx="34.43" cy="4.06" r=".64" fill="#5c913b"/>
      <path fill="#77b255" d="M6.92 34.2c5.32-.39 11.34-4.96 16.16-10.75 5.32-6.39 8.4-10.82 9.58-14.9.69-2.37 1.14-5.13.46-7.12l-.08-.06c-2.33-1.3-7.21-.4-12.08 7.17a38.88 38.88 0 0 1-8.54 9.13C7.94 21.12.49 25.17 1 30.15a5.69 5.69 0 0 0 1.66 3.73c1.14.32 2.55.43 4.26.31z"/>
      <path fill="#5c913b" d="M16.5 25.75c-.44.1-.87-.03-1.26-.38-.4-.34-.58-.75-.54-1.2 0-.04.02-.13-.07-.16a.13.13 0 0 0-.15.03c-.47.53-.36 1.4.24 1.92.3.26.66.4 1.01.4s.7-.14.93-.4c.03-.05.04-.11.01-.16-.05-.08-.13-.06-.17-.05zm8.9-8.14c-.45-.02-.82-.25-1.12-.69-.3-.44-.36-.88-.2-1.3.01-.04.04-.12-.03-.18a.13.13 0 0 0-.15 0c-.29.19-.48.5-.52.86-.05.36.04.73.25 1.05.3.45.76.7 1.22.7.23 0 .46-.07.66-.2a.13.13 0 0 0 .05-.14c-.03-.1-.12-.1-.16-.1zm-5.55.98a.8.8 0 0 0 .58-.25c.04-.04.05-.1.02-.15-.03-.05-.1-.07-.16-.06-.24.06-.47-.02-.7-.2-.21-.2-.31-.43-.29-.67 0-.05-.02-.13-.07-.15a.13.13 0 0 0-.15.03c-.3.34-.23.88.14 1.2.18.16.4.25.63.25zm8.93-7.26c-.22-.2-.32-.42-.3-.66.01-.06-.02-.13-.07-.15a.13.13 0 0 0-.14.03c-.3.33-.23.87.14 1.2.18.16.4.25.63.25.23 0 .44-.1.58-.26.03-.04.04-.1.02-.15-.03-.04-.1-.06-.16-.05a.8.8 0 0 1-.7-.21zm-4.3.23a.8.8 0 0 0 .59-.26c.03-.04.04-.1.01-.15-.03-.04-.1-.06-.16-.05-.24.05-.47-.02-.7-.21-.21-.2-.31-.42-.29-.66 0-.06-.02-.13-.07-.15a.13.13 0 0 0-.15.03c-.3.33-.23.87.14 1.2.18.16.4.25.63.25zm6.2-6.68c-.25.06-.48-.02-.7-.2-.22-.2-.32-.43-.3-.67 0-.05-.02-.13-.07-.15a.13.13 0 0 0-.15.03c-.3.34-.23.88.14 1.2.18.16.4.25.63.25a.8.8 0 0 0 .59-.26c.03-.04.04-.1.01-.14-.03-.05-.1-.07-.16-.06ZM5.81 28.21a1.3 1.3 0 0 1-.1-1.48.13.13 0 0 0-.01-.15.12.12 0 0 0-.15-.02c-.07.03-.13.07-.2.12a1.46 1.46 0 0 0-.22 2.07 1.47 1.47 0 0 0 2.07.23c.06-.04.1-.1.17-.16a.12.12 0 0 0 0-.15.13.13 0 0 0-.14-.05 1.3 1.3 0 0 1-1.42-.41Zm9.72-7.37c.33 0 .65-.1.92-.33.06-.04.11-.1.17-.16a.12.12 0 0 0 0-.15.13.13 0 0 0-.14-.05 1.3 1.3 0 0 1-1.42-.41 1.3 1.3 0 0 1-.1-1.48.13.13 0 0 0-.01-.15.13.13 0 0 0-.15-.02l-.2.12a1.46 1.46 0 0 0-.22 2.08c.3.36.72.55 1.15.55zm9.62-14.16a1.3 1.3 0 0 1-.09-1.48.13.13 0 0 0-.02-.15.12.12 0 0 0-.15-.02 1.46 1.46 0 0 0-.42 2.2 1.47 1.47 0 0 0 2.08.22l.16-.16c.04-.04.04-.1.01-.15a.13.13 0 0 0-.14-.05 1.3 1.3 0 0 1-1.43-.41Zm-12.6 22.38a.95.95 0 0 1-1.07.1.93.93 0 0 1-.45-.98.1.1 0 0 0-.05-.1.1.1 0 0 0-.12.03l-.1.13c-.14.25-.18.54-.1.82a1.07 1.07 0 0 0 1.04.8c.1 0 .19 0 .28-.03a1.07 1.07 0 0 0 .73-.66.1.1 0 0 0-.04-.12.1.1 0 0 0-.12 0zm-2.84-5.82a.93.93 0 0 1 .4-1 .1.1 0 0 0-.07-.18l-.16.02a1.1 1.1 0 0 0-.67.5 1.08 1.08 0 0 0 1.33 1.56.1.1 0 0 0 .06-.11.1.1 0 0 0-.08-.09.93.93 0 0 1-.8-.7zm12.2-9.62a.9.9 0 0 1-1.03.25.94.94 0 0 1-.6-.89.1.1 0 0 0-.07-.1.1.1 0 0 0-.11.05 1.08 1.08 0 1 0 1.99.77.1.1 0 0 0-.05-.1.1.1 0 0 0-.13.02zm-1.15 9a.94.94 0 0 1-1.04.22.94.94 0 0 1-.56-.9.1.1 0 0 0-.07-.1.1.1 0 0 0-.12.04 1.08 1.08 0 1 0 1.92.99l.05-.16a.1.1 0 0 0-.05-.11.1.1 0 0 0-.12.02z"/>
      <circle cx="24.84" cy="20.72" r=".5" fill="#77b255"/>
      <circle cx="30.88" cy="12.22" r=".5" fill="#77b255"/>
      <circle cx="32.66" cy="7.22" r=".5" fill="#77b255"/>
      <circle cx="28" cy="16.75" r=".5" fill="#77b255"/>
      <circle cx="17.94" cy="28.34" r=".5" fill="#77b255"/>
      <circle cx="20.66" cy="25.5" r=".79" fill="#77b255"/>
      <circle cx="11.06" cy="32.94" r=".5" fill="#77b255"/>
      <circle cx="25.78" cy="19.97" r=".5" fill="#77b255"/>
      <circle cx="11.3" cy="19.83" r="1.42" fill="#77b255"/>
      <circle cx="5.7" cy="23.36" r=".98" fill="#77b255"/>
      <circle cx="26.45" cy="3.32" r=".98" fill="#77b255"/>
      <circle cx="1.95" cy="27.23" r=".69" fill="#77b255"/>
      <circle cx="2.48" cy="26.51" r=".69" fill="#77b255"/>
      <circle cx="1.85" cy="31.32" r=".86" fill="#77b255"/>
      <circle cx="13.51" cy="17.14" r=".64" fill="#77b255"/>
      <circle cx="27.48" cy="2.17" r=".64" fill="#77b255"/>
      <circle cx="31.45" cy="1.29" r=".64" fill="#77b255"/>
      <circle cx="16.73" cy="14.2" r=".64" fill="#77b255"/>
      <circle cx="19.7" cy="10.95" r=".64" fill="#77b255"/>
      <circle cx="19.13" cy="11.59" r=".64" fill="#77b255"/>
      <circle cx="22.01" cy="7.76" r=".64" fill="#77b255"/>
    </g>
    <rect width="1.02" height="1.58" x="1071.49" y="502.1" fill="#dae7ef" ry=".31"/>
    <rect width="142.97" height="31.57" x="71.2" fill="#546a79" rx="5.79" ry="6.4"/>
  </g>
</svg>
